# xmcd
# Copyright (C) 1995-1998 Ti Kan
#
# Track frame offsets:
#       150
#       17517
#       41697
#       65088
#       84867
#       99712
#       105515
#       123941
#       144187
#       171458
#       186824
#       216906
#
# Disc length: 3111 seconds
#
# Revision: 0
# Processed by: cddbd v1.5.2PL0 Copyright (c) Steve Scherf et al.
# Submitted via: CD-Import v1.0
#
DISCID=a00c250c
DTITLE=Zero 7 - The Garden
DYEAR=1900
DGENRE=
TTITLE0=Futures
TTITLE1=Throw It All Away
TTITLE2=Seeing Things
TTITLE3=The Pageant Of The Bizarre
TTITLE4=You're My Flame
TTITLE5=Left Behind
TTITLE6=Today
TTITLE7=This Fine Social Scene
TTITLE8=Your Place
TTITLE9=If I Cant Have You
TTITLE10=Crosses
TTITLE11=Waiting To Die
EXTD=
EXTT0=
EXTT1=
EXTT2=
EXTT3=
EXTT4=
EXTT5=
EXTT6=
EXTT7=
EXTT8=
EXTT9=
EXTT10=
EXTT11=
PLAYORDER=
